# xmcd CD database file
#
# Track frame offsets:
#	150
#	18662
#	40497
#	66937
#	85800
#	108372
#	132115
#	149820
#	169535
#	197512
#
# Disc length: 2898 seconds
#
# Revision: 7
# Processed by: cddbd v1.5.2PL0 Copyright (c) Steve Scherf et al.
# Submitted via: CDex 1.70beta3
#
DISCID=8c0b500a
DTITLE=長渕　剛 - Keep on Fighting
DYEAR=2003
DGENRE=Rock
TTITLE0=情熱
TTITLE1=Keep on Fighting
TTITLE2=LANIKAI
TTITLE3=八月の雨の日
TTITLE4=人生はラララ
TTITLE5=翼
TTITLE6=頑張れ！
TTITLE7=傷ついた鳥
TTITLE8=桜島 SAKURAJIMA
TTITLE9=しあわせになろうよ
EXTD=YEAR: 2003
EXTT0=
EXTT1=
EXTT2=
EXTT3=
EXTT4=
EXTT5=
EXTT6=
EXTT7=
EXTT8=
EXTT9=
PLAYORDER=
